<svg xmlns="http://www.w3.org/2000/svg" viewBox="0 0 900 470" width="900" height="470" font-family="Inter, 'Segoe UI', Helvetica, Arial, sans-serif">
<defs>
<linearGradient id="bg" x1="0" y1="0" x2="1" y2="1"><stop offset="0" stop-color="#0b1220"/><stop offset="1" stop-color="#162036"/></linearGradient>
<radialGradient id="glow" cx="0" cy="0" r="1" gradientTransform="translate(0 0) scale(520 360)" gradientUnits="userSpaceOnUse"><stop offset="0" stop-color="#FF9900" stop-opacity="0.28"/><stop offset="1" stop-color="#FF9900" stop-opacity="0"/></radialGradient>
<pattern id="dots" width="22" height="22" patternUnits="userSpaceOnUse"><circle cx="1.5" cy="1.5" r="1" fill="#ffffff" fill-opacity="0.06"/></pattern>
<filter id="sh" x="-20%" y="-20%" width="140%" height="150%"><feDropShadow dx="0" dy="3" stdDeviation="4" flood-color="#000" flood-opacity="0.35"/></filter>
<marker id="ah" viewBox="0 0 10 10" refX="8.5" refY="5" markerWidth="7" markerHeight="7" orient="auto-start-reverse"><path d="M1 1.5 L8.5 5 L1 8.5 z" fill="#94a3b8"/></marker>
</defs>
<rect width="900" height="470" rx="22" fill="url(#bg)"/>
<rect width="900" height="470" rx="22" fill="url(#dots)"/>
<rect width="900" height="470" rx="22" fill="url(#glow)"/>
<rect x="40" y="30" width="5" height="34" rx="2.5" fill="#FF9900"/>
<text x="58" y="44" font-size="22" font-weight="700" fill="#ffffff">Arquitetura de referência na AWS</text>
<text x="58" y="62" font-size="12.5" fill="#9fb0c8">Aplicação web altamente disponível em duas zonas</text>
<rect x="30" y="215" width="90" height="56" rx="12" fill="#FF9900" fill-opacity="0.16" stroke="#FF9900" stroke-opacity="0.85" stroke-width="1.3" filter="url(#sh)"/>
<text x="75.0" y="248.0" text-anchor="middle" font-size="13" font-weight="600" fill="#f1f5f9">Usuários</text>
<rect x="145" y="215" width="120" height="56" rx="12" fill="#FF9900" fill-opacity="0.16" stroke="#FF9900" stroke-opacity="0.85" stroke-width="1.3" filter="url(#sh)"/>
<text x="205.0" y="240.0" text-anchor="middle" font-size="13" font-weight="600" fill="#f1f5f9">Route 53</text>
<text x="205.0" y="257.0" text-anchor="middle" font-size="10.5" fill="#9fb0c8">+ CloudFront</text>
<rect x="285" y="90" width="585" height="360" rx="16" fill="#ffffff" fill-opacity="0.025" stroke="#FF9900" stroke-opacity="0.45" stroke-width="1.2" stroke-dasharray="6 5"/>
<text x="301" y="114" font-size="11.5" font-weight="700" letter-spacing="1.2" fill="#FF9900">REGIÃO AWS</text>
<rect x="300" y="115" width="410" height="320" rx="16" fill="#ffffff" fill-opacity="0.025" stroke="#FF9900" stroke-opacity="0.45" stroke-width="1.2" stroke-dasharray="6 5"/>
<text x="316" y="139" font-size="11.5" font-weight="700" letter-spacing="1.2" fill="#FF9900">VPC</text>
<rect x="318" y="150" width="374" height="38" rx="12" fill="#FF9900" fill-opacity="0.16" stroke="#FF9900" stroke-opacity="0.85" stroke-width="1.3" filter="url(#sh)"/>
<text x="505.0" y="174.0" text-anchor="middle" font-size="13" font-weight="600" fill="#f1f5f9">Application Load Balancer</text>
<rect x="318" y="205" width="182" height="215" rx="16" fill="#ffffff" fill-opacity="0.025" stroke="#FF9900" stroke-opacity="0.45" stroke-width="1.2" stroke-dasharray="6 5"/>
<text x="334" y="229" font-size="11.5" font-weight="700" letter-spacing="1.2" fill="#FF9900">AZ A</text>
<rect x="332" y="240" width="154" height="56" rx="12" fill="#FF9900" fill-opacity="0.16" stroke="#FF9900" stroke-opacity="0.85" stroke-width="1.3" filter="url(#sh)"/>
<text x="409.0" y="265.0" text-anchor="middle" font-size="13" font-weight="600" fill="#f1f5f9">EC2</text>
<text x="409.0" y="282.0" text-anchor="middle" font-size="10.5" fill="#9fb0c8">Auto Scaling</text>
<rect x="332" y="330" width="154" height="56" rx="12" fill="#38bdf8" fill-opacity="0.16" stroke="#38bdf8" stroke-opacity="0.85" stroke-width="1.3" filter="url(#sh)"/>
<text x="409.0" y="355.0" text-anchor="middle" font-size="13" font-weight="600" fill="#f1f5f9">RDS</text>
<text x="409.0" y="372.0" text-anchor="middle" font-size="10.5" fill="#9fb0c8">primário</text>
<line x1="409" y1="296" x2="409" y2="330" stroke="#94a3b8" stroke-width="1.6" marker-end="url(#ah)"/>
<line x1="409" y1="188" x2="409" y2="240" stroke="#94a3b8" stroke-width="1.6" marker-end="url(#ah)"/>
<rect x="510" y="205" width="182" height="215" rx="16" fill="#ffffff" fill-opacity="0.025" stroke="#FF9900" stroke-opacity="0.45" stroke-width="1.2" stroke-dasharray="6 5"/>
<text x="526" y="229" font-size="11.5" font-weight="700" letter-spacing="1.2" fill="#FF9900">AZ B</text>
<rect x="524" y="240" width="154" height="56" rx="12" fill="#FF9900" fill-opacity="0.16" stroke="#FF9900" stroke-opacity="0.85" stroke-width="1.3" filter="url(#sh)"/>
<text x="601.0" y="265.0" text-anchor="middle" font-size="13" font-weight="600" fill="#f1f5f9">EC2</text>
<text x="601.0" y="282.0" text-anchor="middle" font-size="10.5" fill="#9fb0c8">Auto Scaling</text>
<rect x="524" y="330" width="154" height="56" rx="12" fill="#38bdf8" fill-opacity="0.16" stroke="#38bdf8" stroke-opacity="0.85" stroke-width="1.3" filter="url(#sh)"/>
<text x="601.0" y="355.0" text-anchor="middle" font-size="13" font-weight="600" fill="#f1f5f9">RDS</text>
<text x="601.0" y="372.0" text-anchor="middle" font-size="10.5" fill="#9fb0c8">standby</text>
<line x1="601" y1="296" x2="601" y2="330" stroke="#94a3b8" stroke-width="1.6" marker-end="url(#ah)"/>
<line x1="601" y1="188" x2="601" y2="240" stroke="#94a3b8" stroke-width="1.6" marker-end="url(#ah)"/>
<line x1="500" y1="358" x2="510" y2="358" stroke="#94a3b8" stroke-width="1.6" marker-end="url(#ah)"/>
<text x="730" y="112" text-anchor="middle" font-size="9" font-weight="400" fill="#9fb0c8"></text>
<rect x="730" y="125" width="125" height="62" rx="12" fill="#22c55e" fill-opacity="0.16" stroke="#22c55e" stroke-opacity="0.85" stroke-width="1.3" filter="url(#sh)"/>
<text x="792.5" y="153.0" text-anchor="middle" font-size="13" font-weight="600" fill="#f1f5f9">S3</text>
<text x="792.5" y="170.0" text-anchor="middle" font-size="10.5" fill="#9fb0c8">objetos</text>
<rect x="730" y="205" width="125" height="62" rx="12" fill="#a78bfa" fill-opacity="0.16" stroke="#a78bfa" stroke-opacity="0.85" stroke-width="1.3" filter="url(#sh)"/>
<text x="792.5" y="233.0" text-anchor="middle" font-size="13" font-weight="600" fill="#f1f5f9">IAM</text>
<text x="792.5" y="250.0" text-anchor="middle" font-size="10.5" fill="#9fb0c8">acesso</text>
<rect x="730" y="285" width="125" height="62" rx="12" fill="#22c55e" fill-opacity="0.16" stroke="#22c55e" stroke-opacity="0.85" stroke-width="1.3" filter="url(#sh)"/>
<text x="792.5" y="313.0" text-anchor="middle" font-size="13" font-weight="600" fill="#f1f5f9">CloudWatch</text>
<text x="792.5" y="330.0" text-anchor="middle" font-size="10.5" fill="#9fb0c8">monitoramento</text>
<rect x="730" y="365" width="125" height="62" rx="12" fill="#a78bfa" fill-opacity="0.16" stroke="#a78bfa" stroke-opacity="0.85" stroke-width="1.3" filter="url(#sh)"/>
<text x="792.5" y="393.0" text-anchor="middle" font-size="13" font-weight="600" fill="#f1f5f9">SQS · SNS</text>
<text x="792.5" y="410.0" text-anchor="middle" font-size="10.5" fill="#9fb0c8">mensageria</text>
<line x1="120" y1="243" x2="145" y2="243" stroke="#94a3b8" stroke-width="1.6" marker-end="url(#ah)"/>
<line x1="265" y1="243" x2="318" y2="175" stroke="#94a3b8" stroke-width="1.6" marker-end="url(#ah)"/>
</svg>
