<svg xmlns="http://www.w3.org/2000/svg" viewBox="0 0 900 420" width="900" height="420" font-family="Inter, 'Segoe UI', Helvetica, Arial, sans-serif">
<defs>
<linearGradient id="bg" x1="0" y1="0" x2="1" y2="1"><stop offset="0" stop-color="#0b1220"/><stop offset="1" stop-color="#162036"/></linearGradient>
<radialGradient id="glow" cx="0" cy="0" r="1" gradientTransform="translate(0 0) scale(520 360)" gradientUnits="userSpaceOnUse"><stop offset="0" stop-color="#7B42BC" stop-opacity="0.28"/><stop offset="1" stop-color="#7B42BC" stop-opacity="0"/></radialGradient>
<pattern id="dots" width="22" height="22" patternUnits="userSpaceOnUse"><circle cx="1.5" cy="1.5" r="1" fill="#ffffff" fill-opacity="0.06"/></pattern>
<filter id="sh" x="-20%" y="-20%" width="140%" height="150%"><feDropShadow dx="0" dy="3" stdDeviation="4" flood-color="#000" flood-opacity="0.35"/></filter>
<marker id="ah" viewBox="0 0 10 10" refX="8.5" refY="5" markerWidth="7" markerHeight="7" orient="auto-start-reverse"><path d="M1 1.5 L8.5 5 L1 8.5 z" fill="#94a3b8"/></marker>
</defs>
<rect width="900" height="420" rx="22" fill="url(#bg)"/>
<rect width="900" height="420" rx="22" fill="url(#dots)"/>
<rect width="900" height="420" rx="22" fill="url(#glow)"/>
<rect x="40" y="30" width="5" height="34" rx="2.5" fill="#7B42BC"/>
<text x="58" y="44" font-size="22" font-weight="700" fill="#ffffff">Fluxo do Terraform</text>
<text x="58" y="62" font-size="12.5" fill="#9fb0c8">Do código declarativo à infraestrutura real</text>
<rect x="40" y="130" width="150" height="110" rx="12" fill="#7B42BC" fill-opacity="0.16" stroke="#7B42BC" stroke-opacity="0.85" stroke-width="1.3" filter="url(#sh)"/>
<text x="115.0" y="182.0" text-anchor="middle" font-size="14" font-weight="600" fill="#f1f5f9">Código (HCL)</text>
<text x="115.0" y="199.0" text-anchor="middle" font-size="10.5" fill="#9fb0c8">main.tf · variables.tf · módulos</text>
<rect x="250" y="90" width="310" height="200" rx="16" fill="#ffffff" fill-opacity="0.025" stroke="#7B42BC" stroke-opacity="0.45" stroke-width="1.2" stroke-dasharray="6 5"/>
<text x="266" y="114" font-size="11.5" font-weight="700" letter-spacing="1.2" fill="#7B42BC">TERRAFORM CORE</text>
<rect x="268" y="130" width="82" height="44" rx="12" fill="#7B42BC" fill-opacity="0.16" stroke="#7B42BC" stroke-opacity="0.85" stroke-width="1.3" filter="url(#sh)"/>
<text x="309.0" y="157.0" text-anchor="middle" font-size="13" font-weight="600" fill="#f1f5f9">init</text>
<rect x="364" y="130" width="82" height="44" rx="12" fill="#7B42BC" fill-opacity="0.16" stroke="#7B42BC" stroke-opacity="0.85" stroke-width="1.3" filter="url(#sh)"/>
<text x="405.0" y="157.0" text-anchor="middle" font-size="13" font-weight="600" fill="#f1f5f9">plan</text>
<rect x="460" y="130" width="82" height="44" rx="12" fill="#7B42BC" fill-opacity="0.16" stroke="#7B42BC" stroke-opacity="0.85" stroke-width="1.3" filter="url(#sh)"/>
<text x="501.0" y="157.0" text-anchor="middle" font-size="13" font-weight="600" fill="#f1f5f9">apply</text>
<line x1="350" y1="152" x2="364" y2="152" stroke="#94a3b8" stroke-width="1.6" marker-end="url(#ah)"/>
<line x1="446" y1="152" x2="460" y2="152" stroke="#94a3b8" stroke-width="1.6" marker-end="url(#ah)"/>
<rect x="268" y="200" width="274" height="56" rx="12" fill="#7B42BC" fill-opacity="0.16" stroke="#7B42BC" stroke-opacity="0.85" stroke-width="1.3" filter="url(#sh)"/>
<text x="405.0" y="225.0" text-anchor="middle" font-size="13" font-weight="600" fill="#f1f5f9">Grafo de dependências</text>
<text x="405.0" y="242.0" text-anchor="middle" font-size="10.5" fill="#9fb0c8">diff: desejado × atual</text>
<rect x="285" y="335" width="240" height="54" rx="12" fill="#a78bfa" fill-opacity="0.16" stroke="#a78bfa" stroke-opacity="0.85" stroke-width="1.3" filter="url(#sh)"/>
<text x="405.0" y="359.0" text-anchor="middle" font-size="13" font-weight="600" fill="#f1f5f9">State (tfstate)</text>
<text x="405.0" y="376.0" text-anchor="middle" font-size="10.5" fill="#9fb0c8">local · S3 · Terraform Cloud</text>
<line x1="380" y1="290" x2="380" y2="335" stroke="#94a3b8" stroke-width="1.6" marker-end="url(#ah)" marker-start="url(#ah)"/>
<rect x="620" y="90" width="240" height="200" rx="16" fill="#ffffff" fill-opacity="0.025" stroke="#7B42BC" stroke-opacity="0.45" stroke-width="1.2" stroke-dasharray="6 5"/>
<text x="636" y="114" font-size="11.5" font-weight="700" letter-spacing="1.2" fill="#7B42BC">PROVIDERS</text>
<rect x="636" y="125" width="100" height="40" rx="12" fill="#7B42BC" fill-opacity="0.16" stroke="#7B42BC" stroke-opacity="0.85" stroke-width="1.3" filter="url(#sh)"/>
<text x="686.0" y="150.0" text-anchor="middle" font-size="12" font-weight="600" fill="#f1f5f9">AWS</text>
<rect x="744" y="125" width="100" height="40" rx="12" fill="#7B42BC" fill-opacity="0.16" stroke="#7B42BC" stroke-opacity="0.85" stroke-width="1.3" filter="url(#sh)"/>
<text x="794.0" y="150.0" text-anchor="middle" font-size="12" font-weight="600" fill="#f1f5f9">Azure</text>
<rect x="636" y="175" width="100" height="40" rx="12" fill="#7B42BC" fill-opacity="0.16" stroke="#7B42BC" stroke-opacity="0.85" stroke-width="1.3" filter="url(#sh)"/>
<text x="686.0" y="200.0" text-anchor="middle" font-size="12" font-weight="600" fill="#f1f5f9">GCP</text>
<rect x="744" y="175" width="100" height="40" rx="12" fill="#7B42BC" fill-opacity="0.16" stroke="#7B42BC" stroke-opacity="0.85" stroke-width="1.3" filter="url(#sh)"/>
<text x="794.0" y="200.0" text-anchor="middle" font-size="11" font-weight="600" fill="#f1f5f9">DigitalOcean</text>
<rect x="636" y="225" width="208" height="40" rx="12" fill="#7B42BC" fill-opacity="0.16" stroke="#7B42BC" stroke-opacity="0.85" stroke-width="1.3" filter="url(#sh)"/>
<text x="740.0" y="250.0" text-anchor="middle" font-size="12" font-weight="600" fill="#f1f5f9">Kubernetes · Helm · …</text>
<rect x="645" y="335" width="220" height="54" rx="12" fill="#22c55e" fill-opacity="0.16" stroke="#22c55e" stroke-opacity="0.85" stroke-width="1.3" filter="url(#sh)"/>
<text x="755.0" y="359.0" text-anchor="middle" font-size="13" font-weight="600" fill="#f1f5f9">Infraestrutura real</text>
<text x="755.0" y="376.0" text-anchor="middle" font-size="10.5" fill="#9fb0c8">VMs · redes · bancos</text>
<line x1="190" y1="185" x2="250" y2="185" stroke="#94a3b8" stroke-width="1.6" marker-end="url(#ah)"/>
<line x1="560" y1="190" x2="620" y2="190" stroke="#94a3b8" stroke-width="1.6" marker-end="url(#ah)"/>
<text x="590.0" y="182.0" text-anchor="middle" font-size="10.5" fill="#cbd5e1">API</text>
<line x1="740" y1="290" x2="740" y2="335" stroke="#94a3b8" stroke-width="1.6" marker-end="url(#ah)"/>
</svg>
